<svg id="Layer_1" xmlns="http://www.w3.org/2000/svg" version="1.1" viewBox="0 0 200 37.7"><defs><style>.st0{fill:#020202}.st1{fill:#042fef}</style></defs><path class="st0" d="M18.8 18.8c0 2.5-2 4.5-4.5 4.5s-4.5-2-4.5-4.5 2-4.5 4.5-4.5h4.5v4.5zM23.9.1h-5v9.2h-4.5c-5.2 0-9.5 4.2-9.5 9.5s4.2 9.5 9.5 9.5 9.5-4.2 9.5-9.5V.1zM74 23.3c2.5 0 4.5-2 4.5-4.5s-2-4.5-4.5-4.5-4.5 2-4.5 4.5c.1 2.5 2.1 4.5 4.5 4.5m-9.4-4.5c0-5.2 4.2-9.5 9.5-9.5s9.5 4.2 9.5 9.5-4.2 9.5-9.5 9.5-9.5-4.2-9.5-9.5"/><path class="st1" d="M147.3 23.3c2.5 0 4.5-2 4.5-4.5s-2-4.5-4.5-4.5-4.5 2-4.5 4.5c.1 2.5 2.1 4.5 4.5 4.5m-9.4-4.5c0-5.2 4.2-9.5 9.5-9.5s9.5 4.2 9.5 9.5-4.2 9.5-9.5 9.5-9.5-4.2-9.5-9.5M188.8 24.5l-10-5.7c0-5.2 4.2-9.5 9.3-9.5s9.3 4.2 9.3 9.5v1.3h-14c.5 4.9 6.8 5.8 10.2 2.4l2.7 2.6c-1.7 2.3-5 3.2-8.1 3.2-5.2 0-9.3-4.2-9.3-9.5m14.4-1.9c0-2.4-2.8-4-5.2-4-2.4 0-5 1.5-5 4h10.2z"/><path class="st0" d="M99.4 18.8c0-2.4-2-4.4-4.4-4.4s-4.4 2-4.4 4.4v9.1h-4.9v-9.1c0-5.2 4.2-9.5 9.5-9.5s9.5 4.2 9.5 9.5v9.1h-4.9c-.2 0-.2-7.9-.2-9.1"/><path class="st1" d="M172.2 19c0-2.4-2-4.4-4.4-4.4s-4.4 2-4.4 4.4v9.1h-4.9V19c0-5.2 4.2-9.5 9.5-9.5s9.5 4.2 9.5 9.5v9.1h-4.9c-.2 0-.2-7.9-.2-9.1"/><path class="st0" d="M53 15.5c-.7-.5-.5-1.3.7-1.6 1.5-.4 4.1-.1 6.4.9l2.3-3.2c-1-.8-3.2-1.9-6.5-2.1 0 0-5.4-.7-7.7 3.4 0 0-1.9 3.8 1.9 6.3 2.3 1.4 6.4 2 7.7 2.6 1 .6.7 1.7-.8 2-2.6.6-6.1-.9-7.2-1.7l-2.4 3.3c1.6 1.2 3.6 2.3 6.9 2.8 0 0 5.1.9 8-2.6.5-.6 2.8-4.9-1.8-7.5-2.4-1.3-6.3-1.9-7.5-2.6M29.8 31.5c.2.1 2.5 1.7 4.7 1.7 5.4.1 5.8-5.6 5.8-6.9-1 1.1-3.1 1.8-4.4 1.8-5.2 0-9.4-4-9.4-9.3V9.6h4.9v9.2c0 2.4 2 4.4 4.4 4.4s4.4-2 4.4-4.4V9.6h4.9v9.2c0 8.2.4 16.6-7.6 18.5-6 1.4-10.2-2.3-10.5-2.5l2.6-3.3z"/><path class="st1" d="M136 9.3h-15.9v4.2h10l-10 9.8v4.8H136v-4.8h-10.2l10.2-9.8V9.3z"/></svg>